# xmcd
#
# Track frame offsets:
#	150
#	15866
#	33291
#	42800
#	49043
#
# Disc length: 819 seconds
#
# Revision: 1
# Processed by: cddbd v1.4PL0 Copyright (c) Steve Scherf et al.
# Submitted via: EasyCDDAExtractor 5.0.6
#
DISCID=2b033105
DTITLE=Troy Sinister and the Dregs of Humanity - Blues From the Boneyard
DYEAR=2001
DGENRE=Blues
TTITLE0=Hollyweird Vampires
TTITLE1=Boneyard Radio
TTITLE2=Buffalo Shuffle
TTITLE3=Move
TTITLE4=Christonacaddie
EXTD=
EXTT0=
EXTT1=
EXTT2=
EXTT3=
EXTT4=
PLAYORDER=
